<?xml version="1.0" encoding="UTF-8"?>
<svg xmlns="http://www.w3.org/2000/svg" viewBox="0 0 1484 1389" fill="#2563eb">
  <path fill-rule="evenodd" d="M 280.00,512.00 C 294.45,508.71 302.85,502.70 315.00,495.08 330.35,485.45 345.98,470.31 355.76,455.00 355.76,455.00 361.17,445.00 361.17,445.00 369.19,430.60 370.06,430.07 375.19,414.00 378.89,402.44 381.98,390.21 382.00,378.00 382.00,378.00 382.00,357.00 382.00,357.00 382.00,357.00 382.91,345.00 382.91,345.00 384.78,317.83 389.39,291.27 396.59,265.00 396.59,265.00 401.81,247.00 401.81,247.00 411.51,221.40 424.51,193.05 439.24,170.00 464.56,130.39 503.80,89.06 543.00,63.07 543.00,63.07 557.00,54.97 557.00,54.97 557.00,54.97 575.00,43.32 575.00,43.32 575.00,43.32 587.00,38.22 587.00,38.22 587.00,38.22 605.00,29.31 605.00,29.31 605.00,29.31 632.00,19.49 632.00,19.49 648.28,14.04 672.11,6.79 689.00,5.17 689.00,5.17 709.00,3.91 709.00,3.91 709.00,3.91 721.00,3.00 721.00,3.00 721.00,3.00 773.00,3.00 773.00,3.00 790.20,3.20 826.48,10.41 843.00,16.00 843.00,16.00 865.00,24.69 865.00,24.69 865.00,24.69 875.00,27.55 875.00,27.55 875.00,27.55 892.00,34.53 892.00,34.53 892.00,34.53 899.00,38.74 899.00,38.74 899.00,38.74 916.00,46.40 916.00,46.40 916.00,46.40 937.00,60.91 937.00,60.91 956.54,73.99 973.91,86.67 991.00,103.04 999.37,111.05 1009.62,123.85 1017.25,133.00 1017.25,133.00 1037.23,158.00 1037.23,158.00 1037.23,158.00 1044.54,170.00 1044.54,170.00 1058.62,191.86 1066.76,208.12 1076.71,232.00 1076.71,232.00 1080.56,241.00 1080.56,241.00 1080.56,241.00 1086.85,260.00 1086.85,260.00 1086.85,260.00 1090.63,277.00 1090.63,277.00 1090.63,277.00 1093.87,290.00 1093.87,290.00 1093.87,290.00 1097.74,307.00 1097.74,307.00 1097.74,307.00 1102.00,355.00 1102.00,355.00 1102.06,367.98 1102.06,381.20 1104.42,394.00 1105.87,401.79 1114.14,427.00 1114.14,427.00 1124.95,453.59 1144.54,478.62 1169.00,493.81 1181.51,501.59 1188.38,506.63 1203.00,511.00 1203.00,511.00 1416.00,142.00 1416.00,142.00 1416.00,142.00 1054.39,142.21 1052.17,140.98 1049.74,139.63 1020.42,104.62 1020.99,101.15 1021.60,97.46 1483.75,98.00 1483.75,98.00 1484.00,101.43 1484.27,110.17 1483.75,113.00 1483.75,113.00 747.72,1388.36 742.36,1388.36 736.87,1388.36 0.25,111.00 0.25,111.00 -0.26,108.22 -0.07,101.21 0.18,97.91 0.18,97.91 458.21,97.87 459.69,98.60 465.92,101.66 434.83,139.99 431.83,141.26 429.74,142.14 68.00,142.00 68.00,142.00 68.00,142.00 278.46,504.39 280.00,512.00 Z M 724.00,38.28 C 724.00,38.28 689.00,42.30 689.00,42.30 689.00,42.30 674.00,45.40 674.00,45.40 652.84,49.63 643.37,51.96 623.00,59.63 623.00,59.63 610.00,63.92 610.00,63.92 593.45,70.48 578.09,79.59 563.00,88.93 549.63,97.19 537.42,106.12 525.00,115.70 525.00,115.70 518.28,120.47 518.28,120.47 518.28,120.47 502.99,136.00 502.99,136.00 502.99,136.00 473.55,168.00 473.55,168.00 473.55,168.00 468.25,176.00 468.25,176.00 456.14,193.41 449.23,205.08 439.78,224.00 439.78,224.00 430.78,241.00 430.78,241.00 430.78,241.00 419.85,274.00 419.85,274.00 419.85,274.00 416.51,283.00 416.51,283.00 409.10,308.27 405.96,348.47 406.00,375.00 406.00,375.00 407.83,401.00 407.83,401.00 409.25,415.78 410.58,430.46 413.89,445.00 413.89,445.00 424.33,478.00 424.33,478.00 430.67,496.83 439.48,518.87 449.46,536.00 464.02,561.00 490.61,594.51 512.00,613.83 512.00,613.83 533.00,630.80 533.00,630.80 541.05,637.30 549.26,644.05 558.00,649.62 558.00,649.62 568.00,655.20 568.00,655.20 568.00,655.20 582.00,663.69 582.00,663.69 582.00,663.69 600.00,672.16 600.00,672.16 618.88,680.81 622.77,682.67 643.00,688.88 668.75,696.79 680.16,699.29 707.00,702.16 707.00,702.16 726.00,704.00 726.00,704.00 726.00,704.00 760.00,704.00 760.00,704.00 773.63,703.98 812.49,697.63 826.00,693.91 826.00,693.91 844.00,687.67 844.00,687.67 860.96,682.02 878.11,675.83 894.00,667.52 948.24,639.14 993.70,599.77 1026.78,548.00 1051.19,509.82 1067.48,465.74 1074.42,421.00 1076.22,409.46 1078.98,395.59 1079.00,384.00 1079.00,384.00 1079.00,359.00 1079.00,359.00 1079.00,359.00 1078.09,349.00 1078.09,349.00 1078.09,349.00 1076.83,331.00 1076.83,331.00 1076.83,331.00 1073.68,310.00 1073.68,310.00 1073.68,310.00 1068.59,289.00 1068.59,289.00 1063.44,268.55 1059.15,256.39 1050.85,237.00 1050.85,237.00 1045.41,224.00 1045.41,224.00 1045.41,224.00 1034.29,204.00 1034.29,204.00 1034.29,204.00 1022.38,184.00 1022.38,184.00 1022.38,184.00 1009.23,167.00 1009.23,167.00 1003.62,159.67 993.02,146.68 986.71,140.28 969.66,123.01 938.84,98.05 918.00,85.58 918.00,85.58 895.00,73.89 895.00,73.89 895.00,73.89 885.00,68.51 885.00,68.51 885.00,68.51 867.00,62.12 867.00,62.12 867.00,62.12 859.00,58.31 859.00,58.31 859.00,58.31 835.00,49.46 835.00,49.46 835.00,49.46 809.00,44.29 809.00,44.29 809.00,44.29 801.00,43.68 801.00,43.68 801.00,43.68 776.00,39.29 776.00,39.29 764.85,37.82 735.13,37.25 724.00,38.28 Z M 806.00,190.00 C 806.00,190.00 694.00,239.74 694.00,239.74 687.47,241.54 600.97,216.61 599.02,213.61 597.81,211.75 586.95,112.84 588.49,110.37 589.66,107.76 597.24,103.29 600.00,101.77 600.00,101.77 628.00,88.11 628.00,88.11 635.79,84.61 643.79,81.21 652.00,78.77 652.00,78.77 670.00,74.58 670.00,74.58 695.27,68.97 721.03,64.70 747.00,65.00 747.00,65.00 770.00,66.68 770.00,66.68 773.69,66.81 784.56,68.01 786.47,71.43 786.47,71.43 805.91,179.97 806.00,190.00 Z M 807.00,74.00 C 807.00,74.00 825.03,186.84 827.26,190.83 829.50,194.84 910.56,284.18 916.01,287.25 920.08,289.54 1040.00,322.00 1040.00,322.00 1039.93,298.82 1028.40,272.26 1019.80,251.00 1019.80,251.00 1011.19,230.00 1011.19,230.00 1011.19,230.00 1003.04,217.00 1003.04,217.00 1003.04,217.00 999.02,209.00 999.02,209.00 999.02,209.00 993.44,201.00 993.44,201.00 978.28,177.61 964.71,161.56 944.00,142.83 944.00,142.83 934.00,133.46 934.00,133.46 934.00,133.46 924.00,126.43 924.00,126.43 924.00,126.43 900.00,110.55 900.00,110.55 884.76,101.41 882.85,99.71 866.00,92.43 846.97,84.22 827.95,75.71 807.00,74.00 Z M 350.88,184.12 C 350.88,184.12 351.06,434.28 350.15,437.00 348.54,441.84 315.23,479.73 311.17,477.87 307.50,476.19 233.22,351.02 233.32,341.26 233.32,341.26 234.55,183.82 234.55,183.82 234.55,183.82 350.88,184.12 350.88,184.12 Z M 1135.60,185.00 C 1141.58,182.48 1247.12,181.89 1249.40,187.15 1250.12,188.79 1251.00,338.00 1251.00,338.00 1250.98,350.06 1176.17,473.86 1174.44,475.00 1169.31,478.38 1136.30,440.36 1134.65,435.00 1134.65,435.00 1132.93,188.75 1135.60,185.00 Z M 592.00,234.86 C 598.12,234.45 679.69,256.74 681.40,258.56 683.03,260.29 696.81,379.82 695.52,383.00 694.11,387.86 582.14,488.38 579.00,489.23 576.31,489.96 459.85,466.36 457.66,464.15 455.22,461.78 471.47,292.31 473.73,289.11 476.65,284.98 592.00,234.86 592.00,234.86 Z M 451.00,284.00 C 455.45,286.36 454.54,289.99 454.07,295.00 454.07,295.00 446.96,371.00 446.96,371.00 446.96,371.00 445.26,407.89 442.36,412.36 441.09,404.55 440.88,403.36 440.08,396.00 440.08,396.00 439.01,370.00 439.01,370.00 439.01,370.00 442.74,322.67 446.17,305.00 447.38,298.79 448.00,296.36 451.00,284.00 Z M 913.37,308.03 C 918.94,306.02 1040.82,338.76 1043.15,341.51 1045.45,344.24 1045.99,356.16 1046.00,360.00 1046.00,360.00 1046.00,383.00 1046.00,383.00 1045.98,395.52 1041.60,419.50 1038.59,432.00 1038.59,432.00 1026.72,474.54 1018.61,494.00 1018.61,494.00 1006.45,519.00 1006.45,519.00 999.10,532.47 989.24,548.21 978.80,559.42 978.80,559.42 969.71,569.36 969.71,569.36 966.03,571.83 877.17,548.05 874.43,545.91 871.36,543.54 850.29,423.28 851.15,417.00 851.72,412.79 907.88,312.94 913.37,308.03 Z M 707.17,397.70 C 715.00,395.82 832.30,421.65 834.40,424.28 836.27,426.61 855.56,547.60 854.77,552.00 854.05,556.01 777.10,653.94 774.70,655.03 771.10,656.66 619.47,624.42 617.31,622.86 614.87,621.10 591.09,510.85 592.15,504.00 592.86,499.39 699.99,401.42 707.17,397.70 Z M 1182.00,550.00 C 1182.00,550.00 1060.04,549.89 1056.38,552.09 1053.85,553.75 1049.03,562.13 1047.14,565.00 1047.14,565.00 1029.50,590.00 1029.50,590.00 1008.77,616.91 990.20,635.11 964.00,656.58 954.50,664.36 944.33,671.03 934.00,677.63 899.62,699.61 873.03,710.58 834.00,721.42 834.00,721.42 805.00,728.54 805.00,728.54 805.00,728.54 780.00,731.17 780.00,731.17 780.00,731.17 754.00,734.00 754.00,734.00 754.00,734.00 735.00,734.00 735.00,734.00 735.00,734.00 704.00,731.17 704.00,731.17 631.58,724.16 561.23,692.78 506.00,645.57 483.32,626.18 461.77,600.99 444.02,577.00 444.02,577.00 433.56,561.00 433.56,561.00 432.24,558.70 429.47,553.39 427.39,551.99 425.53,550.75 302.00,550.00 302.00,550.00 302.00,550.00 741.00,1315.00 741.00,1315.00 746.80,1309.71 1180.72,554.01 1182.00,550.00 Z M 610.00,640.00 C 610.00,640.00 645.00,646.55 645.00,646.55 645.00,646.55 687.00,654.45 687.00,654.45 687.00,654.45 727.00,663.21 727.00,663.21 727.00,663.21 750.00,668.55 750.00,668.55 750.00,668.55 766.00,672.00 766.00,672.00 766.00,672.00 729.00,672.00 729.00,672.00 706.22,671.96 664.26,662.85 643.00,654.45 635.40,651.44 615.40,644.56 610.00,640.00 Z M 773.00,1084.00 C 773.00,1084.00 787.02,1128.00 787.02,1128.00 787.90,1130.83 793.24,1142.01 787.85,1142.46 784.55,1142.74 777.76,1136.71 775.00,1134.63 775.00,1134.63 753.00,1117.63 753.00,1117.63 751.04,1116.15 744.92,1111.30 743.00,1110.73 739.17,1109.58 734.84,1114.16 732.00,1116.35 732.00,1116.35 707.00,1135.47 707.00,1135.47 704.62,1137.27 697.66,1143.80 694.60,1141.87 691.40,1139.86 695.39,1129.83 696.33,1127.00 696.33,1127.00 705.67,1097.00 705.67,1097.00 706.48,1094.51 709.36,1086.91 708.52,1084.66 707.65,1082.33 701.18,1077.79 699.00,1076.12 699.00,1076.12 676.00,1058.53 676.00,1058.53 673.53,1056.66 666.46,1051.78 665.74,1048.97 664.75,1045.05 669.51,1045.05 672.00,1045.00 672.00,1045.00 712.00,1045.00 712.00,1045.00 714.65,1044.99 718.25,1045.35 720.30,1043.40 722.21,1041.59 724.56,1033.78 725.41,1031.00 725.41,1031.00 734.41,1004.00 734.41,1004.00 735.26,1001.25 738.35,987.99 742.64,990.17 745.10,991.42 747.40,1000.20 748.33,1003.00 748.33,1003.00 757.67,1031.00 757.67,1031.00 758.61,1033.83 760.79,1041.59 762.70,1043.40 764.75,1045.35 768.35,1044.99 771.00,1045.00 771.00,1045.00 811.00,1045.00 811.00,1045.00 813.52,1045.05 818.40,1045.02 816.83,1049.04 815.57,1052.29 807.98,1057.35 805.00,1059.65 796.83,1065.95 781.22,1079.66 773.00,1084.00 Z"/>
</svg>
